<?xml version="1.0" encoding="UTF-8"?>
<svg id="Layer_1" data-name="Layer 1" xmlns="http://www.w3.org/2000/svg" viewBox="0 0 91.88 84.6">
  <defs>
    <style>
      .cls-1 {
        fill: #191919;
      }
    </style>
  </defs>
  <path class="cls-1" d="M87.01,27.02c0-12.44-10.09-22.53-22.53-22.53H4.87c0,16.88,13.69,30.57,30.57,30.57h29.04c6.54,0,12.43,2.79,16.55,7.25,3.71-4.02,5.98-9.38,5.98-15.28h0Z"/>
  <path class="cls-1" d="M64.48,49.55h-29.04c-16.88,0-30.57,13.69-30.57,30.57h0s59.61,0,59.61,0c12.44,0,22.53-10.09,22.53-22.53h0c0-5.9-2.27-11.27-5.98-15.28-4.12,4.46-10.01,7.25-16.55,7.25Z"/>
</svg>